<svg width="254" height="77" viewBox="0 0 254 77" fill="none" xmlns="http://www.w3.org/2000/svg">
<path d="M83.5284 61V31.9091H95.0057C97.2027 31.9091 99.0777 32.3021 100.631 33.0881C102.193 33.8646 103.382 34.9678 104.196 36.3977C105.02 37.8182 105.432 39.4896 105.432 41.4119C105.432 43.3437 105.015 45.0057 104.182 46.3977C103.348 47.7803 102.141 48.8409 100.56 49.5795C98.9877 50.3182 97.0843 50.6875 94.8494 50.6875H87.1648V45.7443H93.8551C95.0294 45.7443 96.0047 45.5833 96.7812 45.2614C97.5578 44.9394 98.1354 44.4564 98.5142 43.8125C98.9025 43.1686 99.0966 42.3684 99.0966 41.4119C99.0966 40.446 98.9025 39.6316 98.5142 38.9688C98.1354 38.3059 97.553 37.804 96.767 37.4631C95.9905 37.1127 95.0104 36.9375 93.8267 36.9375H89.679V61H83.5284ZM99.2386 47.7614L106.469 61H99.679L92.6051 47.7614H99.2386ZM110.465 61V39.1818H116.516V61H110.465ZM113.505 36.3693C112.605 36.3693 111.833 36.071 111.189 35.4744C110.555 34.8684 110.237 34.1439 110.237 33.3011C110.237 32.4678 110.555 31.7528 111.189 31.1562C111.833 30.5502 112.605 30.2472 113.505 30.2472C114.404 30.2472 115.171 30.5502 115.806 31.1562C116.45 31.7528 116.772 32.4678 116.772 33.3011C116.772 34.1439 116.45 34.8684 115.806 35.4744C115.171 36.071 114.404 36.3693 113.505 36.3693ZM140.317 45.4034L134.777 45.7443C134.682 45.2708 134.479 44.8447 134.166 44.4659C133.854 44.0777 133.442 43.7699 132.93 43.5426C132.428 43.3059 131.827 43.1875 131.126 43.1875C130.189 43.1875 129.398 43.3864 128.754 43.7841C128.11 44.1723 127.788 44.6932 127.788 45.3466C127.788 45.8674 127.997 46.3078 128.413 46.6676C128.83 47.0275 129.545 47.3163 130.558 47.5341L134.507 48.3295C136.628 48.7652 138.21 49.4659 139.251 50.4318C140.293 51.3977 140.814 52.6667 140.814 54.2386C140.814 55.6686 140.392 56.9233 139.55 58.0028C138.716 59.0824 137.57 59.9252 136.112 60.5312C134.663 61.1278 132.992 61.4261 131.098 61.4261C128.21 61.4261 125.908 60.8248 124.194 59.6222C122.49 58.41 121.491 56.7623 121.197 54.679L127.149 54.3665C127.329 55.2472 127.765 55.9195 128.456 56.3835C129.147 56.8381 130.033 57.0653 131.112 57.0653C132.173 57.0653 133.025 56.8617 133.669 56.4545C134.322 56.0379 134.654 55.5028 134.663 54.8494C134.654 54.3002 134.422 53.8504 133.967 53.5C133.513 53.1402 132.812 52.8655 131.865 52.6761L128.087 51.9233C125.956 51.4972 124.37 50.7585 123.328 49.7074C122.296 48.6562 121.78 47.3163 121.78 45.6875C121.78 44.286 122.158 43.0786 122.916 42.0653C123.683 41.0521 124.758 40.2708 126.14 39.7216C127.533 39.1723 129.161 38.8977 131.027 38.8977C133.783 38.8977 135.951 39.4801 137.533 40.6449C139.123 41.8097 140.051 43.3958 140.317 45.4034ZM151.475 48.3864V61H145.424V31.9091H151.305V43.0312H151.561C152.053 41.7434 152.848 40.7348 153.947 40.0057C155.045 39.267 156.423 38.8977 158.08 38.8977C159.596 38.8977 160.917 39.2292 162.043 39.892C163.18 40.5455 164.061 41.4877 164.686 42.7188C165.32 43.9403 165.632 45.4034 165.623 47.108V61H159.572V48.1875C159.581 46.8428 159.24 45.7964 158.549 45.0483C157.867 44.3002 156.911 43.9261 155.68 43.9261C154.856 43.9261 154.127 44.1013 153.492 44.4517C152.867 44.8021 152.375 45.3134 152.015 45.9858C151.665 46.6487 151.485 47.4489 151.475 48.3864ZM171.185 61V39.1818H177.236V61H171.185ZM174.225 36.3693C173.325 36.3693 172.553 36.071 171.91 35.4744C171.275 34.8684 170.958 34.1439 170.958 33.3011C170.958 32.4678 171.275 31.7528 171.91 31.1562C172.553 30.5502 173.325 30.2472 174.225 30.2472C175.124 30.2472 175.892 30.5502 176.526 31.1562C177.17 31.7528 177.492 32.4678 177.492 33.3011C177.492 34.1439 177.17 34.8684 176.526 35.4744C175.892 36.071 175.124 36.3693 174.225 36.3693Z" fill="white"/>
<path d="M183.528 61V31.9091H195.006C197.212 31.9091 199.092 32.3305 200.645 33.1733C202.198 34.0066 203.382 35.1667 204.196 36.6534C205.02 38.1307 205.432 39.8352 205.432 41.767C205.432 43.6989 205.015 45.4034 204.182 46.8807C203.348 48.358 202.141 49.5085 200.56 50.3324C198.988 51.1562 197.084 51.5682 194.849 51.5682H187.534V46.6392H193.855C195.039 46.6392 196.014 46.4356 196.781 46.0284C197.558 45.6117 198.135 45.0388 198.514 44.3097C198.902 43.571 199.097 42.7235 199.097 41.767C199.097 40.8011 198.902 39.9583 198.514 39.2386C198.135 38.5095 197.558 37.946 196.781 37.5483C196.005 37.1411 195.02 36.9375 193.827 36.9375H189.679V61H183.528ZM215.749 61.4119C214.357 61.4119 213.116 61.1705 212.027 60.6875C210.938 60.1951 210.077 59.4706 209.442 58.5142C208.817 57.5483 208.505 56.3456 208.505 54.9062C208.505 53.6941 208.727 52.6761 209.172 51.8523C209.617 51.0284 210.223 50.3655 210.99 49.8636C211.757 49.3617 212.629 48.983 213.604 48.7273C214.589 48.4716 215.621 48.2917 216.701 48.1875C217.97 48.0549 218.992 47.9318 219.769 47.8182C220.545 47.6951 221.109 47.5152 221.459 47.2784C221.809 47.0417 221.985 46.6913 221.985 46.2273V46.142C221.985 45.2424 221.701 44.5464 221.132 44.054C220.574 43.5616 219.778 43.3153 218.746 43.3153C217.657 43.3153 216.791 43.5568 216.147 44.0398C215.503 44.5133 215.077 45.1098 214.868 45.8295L209.272 45.375C209.556 44.0492 210.114 42.9034 210.948 41.9375C211.781 40.9621 212.856 40.214 214.172 39.6932C215.498 39.1629 217.032 38.8977 218.774 38.8977C219.987 38.8977 221.147 39.0398 222.255 39.3239C223.372 39.608 224.362 40.0483 225.223 40.6449C226.095 41.2415 226.781 42.0085 227.283 42.946C227.785 43.8741 228.036 44.9867 228.036 46.2841V61H222.297V57.9744H222.127C221.776 58.6562 221.308 59.2576 220.72 59.7784C220.133 60.2898 219.428 60.6922 218.604 60.9858C217.78 61.2699 216.828 61.4119 215.749 61.4119ZM217.482 57.2358C218.372 57.2358 219.158 57.0606 219.84 56.7102C220.522 56.3504 221.057 55.8674 221.445 55.2614C221.833 54.6553 222.027 53.9687 222.027 53.2017V50.8864C221.838 51.0095 221.577 51.1231 221.246 51.2273C220.924 51.322 220.559 51.4119 220.152 51.4972C219.745 51.5729 219.338 51.6439 218.931 51.7102C218.523 51.767 218.154 51.8191 217.823 51.8665C217.112 51.9706 216.492 52.1364 215.962 52.3636C215.432 52.5909 215.02 52.8987 214.726 53.2869C214.433 53.6657 214.286 54.1392 214.286 54.7074C214.286 55.5312 214.584 56.161 215.181 56.5966C215.787 57.0227 216.554 57.2358 217.482 57.2358ZM236.485 69.1818C235.718 69.1818 234.998 69.1203 234.326 68.9972C233.663 68.8835 233.114 68.7367 232.678 68.5568L234.042 64.0398C234.752 64.2576 235.391 64.3759 235.959 64.3949C236.537 64.4138 237.034 64.2813 237.451 63.9972C237.877 63.7131 238.223 63.2301 238.488 62.5483L238.843 61.625L231.016 39.1818H237.38L241.897 55.2045H242.124L246.684 39.1818H253.09L244.61 63.358C244.203 64.5322 243.649 65.5549 242.948 66.4261C242.257 67.3068 241.381 67.9839 240.32 68.4574C239.26 68.9403 237.981 69.1818 236.485 69.1818Z" fill="#5CE1E6"/>
<path d="M36 29C33.8244 29 31.6977 29.6451 29.8887 30.8538C28.0798 32.0625 26.6699 33.7805 25.8373 35.7905C25.0048 37.8005 24.7869 40.0122 25.2114 42.146C25.6358 44.2798 26.6835 46.2398 28.2218 47.7782C29.7602 49.3165 31.7202 50.3642 33.854 50.7886C35.9878 51.2131 38.1995 50.9952 40.2095 50.1627C42.2195 49.3301 43.9375 47.9202 45.1462 46.1113C46.3548 44.3023 47 42.1756 47 40H41.5C41.5 41.0878 41.1774 42.1512 40.5731 43.0556C39.9687 43.9601 39.1097 44.6651 38.1048 45.0813C37.0998 45.4976 35.9939 45.6065 34.927 45.3943C33.8601 45.1821 32.8801 44.6583 32.1109 43.8891C31.3417 43.1199 30.8179 42.1399 30.6057 41.073C30.3935 40.0061 30.5024 38.9002 30.9187 37.8952C31.335 36.8903 32.0399 36.0312 32.9444 35.4269C33.8488 34.8226 34.9122 34.5 36 34.5V29Z" fill="white"/>
<path d="M36.0678 4C28.9343 4 21.9609 6.11534 16.0296 10.0785C10.0983 14.0417 5.47541 19.6747 2.74552 26.2652C0.0156288 32.8558 -0.698635 40.1078 0.693047 47.1043C2.08473 54.1007 5.51986 60.5274 10.564 65.5716C15.6082 70.6157 22.0348 74.0509 29.0313 75.4426C36.0278 76.8342 43.2798 76.12 49.8703 73.3901C56.4609 70.6602 62.0939 66.0373 66.0571 60.106C70.0202 54.1747 72.1356 47.2013 72.1356 40.0678H54.1017C54.1017 43.6346 53.044 47.1212 51.0624 50.0869C49.0808 53.0526 46.2643 55.364 42.9691 56.7289C39.6738 58.0939 36.0478 58.451 32.5496 57.7552C29.0513 57.0593 25.838 55.3418 23.3159 52.8197C20.7938 50.2976 19.0763 47.0843 18.3804 43.586C17.6846 40.0878 18.0417 36.4618 19.4066 33.1665C20.7716 29.8713 23.083 27.0547 26.0487 25.0732C29.0144 23.0916 32.501 22.0339 36.0678 22.0339V4Z" fill="#5CE1E6"/>
<path d="M36.0678 4C31.3313 4 26.6412 4.93292 22.2652 6.7455C17.8893 8.55807 13.9132 11.2148 10.564 14.564C7.21481 17.9132 4.55807 21.8893 2.7455 26.2653C0.93292 30.6412 -7.1519e-07 35.3313 0 40.0678H18.0339C18.0339 37.6996 18.5004 35.3545 19.4066 33.1665C20.3129 30.9785 21.6413 28.9905 23.3159 27.3159C24.9905 25.6413 26.9785 24.3129 29.1665 23.4066C31.3545 22.5004 33.6995 22.0339 36.0678 22.0339V4Z" fill="white"/>
<path d="M76.0674 36.0678C76.0674 31.3313 75.1345 26.6412 73.3219 22.2652C71.5093 17.8893 68.8526 13.9132 65.5034 10.564C62.1542 7.21481 58.1781 4.55807 53.8021 2.7455C49.4262 0.93292 44.7361 -7.1519e-07 39.9996 0V18.0339C42.3678 18.0339 44.7129 18.5004 46.9009 19.4066C49.0889 20.3129 51.0769 21.6413 52.7515 23.3159C54.4261 24.9905 55.7545 26.9785 56.6608 29.1665C57.567 31.3545 58.0335 33.6995 58.0335 36.0678H76.0674Z" fill="white"/>
<path d="M36 29C34.5555 29 33.1251 29.2845 31.7905 29.8373C30.4559 30.3901 29.2433 31.2004 28.2218 32.2218C27.2004 33.2433 26.3901 34.4559 25.8373 35.7905C25.2845 37.1251 25 38.5555 25 40H30.5C30.5 39.2777 30.6423 38.5625 30.9186 37.8952C31.1951 37.2279 31.6002 36.6216 32.1109 36.1109C32.6216 35.6002 33.2279 35.1951 33.8952 34.9186C34.5625 34.6423 35.2777 34.5 36 34.5V29Z" fill="#5CE1E6"/>
<path d="M51 36C51 34.5555 50.7155 33.1251 50.1627 31.7905C49.6099 30.4559 48.7996 29.2433 47.7782 28.2218C46.7567 27.2004 45.5441 26.3901 44.2095 25.8373C42.8749 25.2845 41.4445 25 40 25V30.5C40.7223 30.5 41.4375 30.6423 42.1048 30.9186C42.7721 31.1951 43.3784 31.6002 43.8891 32.1109C44.3998 32.6216 44.8049 33.2279 45.0814 33.8952C45.3577 34.5625 45.5 35.2777 45.5 36H51Z" fill="#5CE1E6"/>
</svg>
